<svg xmlns="http://www.w3.org/2000/svg" width="256" height="256" viewBox="0 0 100 100"><rect width="100" height="100" rx="0" fill="#7d6ee7"></rect><path fill="#ffffff" d="M13.14 71.63L13.14 71.63Q10.06 71.63 10.06 69.11L10.06 69.11L10.06 29.56Q11.32 28.30 13.84 28.30L13.84 28.30Q15.52 28.30 16.71 28.96Q17.91 29.63 18.88 31.38L18.88 31.38L32.25 53.78Q33.09 55.25 34.00 56.89Q34.91 58.54 35.75 60.19Q36.59 61.83 37.33 63.27Q38.06 64.70 38.56 65.68L38.56 65.68L38.83 65.61Q38.28 59.94 38.17 54.20Q38.06 48.46 38.06 43L38.06 43L38.06 28.86Q38.48 28.72 39.19 28.54Q39.89 28.37 40.72 28.37L40.72 28.37Q43.81 28.37 43.81 30.89L43.81 30.89L43.81 70.51Q43.17 71.07 42.20 71.39Q41.22 71.70 40.03 71.70L40.03 71.70Q38.34 71.70 37.16 71.03Q35.97 70.37 34.98 68.62L34.98 68.62L21.68 46.22Q20.84 44.82 19.90 43.14Q18.95 41.46 18.08 39.85Q17.20 38.24 16.47 36.77Q15.73 35.30 15.24 34.32L15.24 34.32L14.96 34.39Q15.31 37.75 15.52 42.05Q15.73 46.36 15.73 50.21L15.73 50.21L15.73 71.14Q15.38 71.28 14.65 71.45Q13.91 71.63 13.14 71.63ZM89.94 51.19L89.94 66.38Q89.94 67.64 89.20 68.48Q88.47 69.32 87.00 70.09L87.00 70.09Q85.25 70.93 82.16 71.56Q79.09 72.19 75.94 72.19L75.94 72.19Q71.03 72.19 66.97 70.86Q62.91 69.53 59.97 66.80Q57.03 64.07 55.42 59.91Q53.81 55.74 53.81 50.07L53.81 50.07Q53.81 44.47 55.49 40.27Q57.17 36.07 60.08 33.30Q62.98 30.54 66.83 29.17Q70.69 27.81 75.03 27.81L75.03 27.81Q77.97 27.81 80.45 28.30Q82.94 28.79 84.69 29.59Q86.44 30.40 87.41 31.38Q88.40 32.36 88.40 33.34L88.40 33.34Q88.40 34.32 87.84 35.02Q87.28 35.72 86.50 36.07L86.50 36.07Q84.62 34.81 82.03 33.72Q79.44 32.64 75.38 32.64L75.38 32.64Q72.02 32.64 69.14 33.76Q66.28 34.88 64.17 37.05Q62.07 39.22 60.88 42.51Q59.69 45.80 59.69 50.07L59.69 50.07Q59.69 54.62 60.92 57.88Q62.14 61.13 64.35 63.23Q66.56 65.33 69.53 66.34Q72.50 67.36 76.00 67.36L76.00 67.36Q78.53 67.36 80.77 66.94Q83.00 66.52 84.27 65.89L84.27 65.89L84.27 53.01L73.69 53.01Q73.48 52.66 73.28 52.06Q73.06 51.47 73.06 50.77L73.06 50.77Q73.06 49.58 73.63 48.91Q74.19 48.25 75.23 48.25L75.23 48.25L86.92 48.25Q88.19 48.25 89.06 49.05Q89.94 49.86 89.94 51.19L89.94 51.19Z"></path></svg>